<svg xmlns="http://www.w3.org/2000/svg" width="32.229" height="23.057" viewBox="0 0 32.229 23.057"><g transform="translate(-1891.825 -1060.594)"><g transform="translate(1881.114 1049)"><path d="M14.211,134.145a197.715,197.715,0,0,0,28.263-.623c2.367-.222,2.391-3.95,0-3.726a197.715,197.715,0,0,1-28.263.623c-2.4-.118-2.391,3.608,0,3.726" transform="translate(-1.705 -118.192)" fill="#44413f"/><path d="M15,141.14a173.412,173.412,0,0,0,26.31-.484c2.367-.222,2.39-3.952,0-3.726a173.412,173.412,0,0,1-26.31.484c-2.4-.138-2.387,3.589,0,3.726" transform="translate(-1.514 -116.465)" fill="#44413f"/><path d="M15.082,149.154c9.185-.122,18.37-.281,27.554-.4,2.395-.032,2.4-3.758,0-3.726-9.185.12-18.37.279-27.554.4-2.4.032-2.4,3.758,0,3.726" transform="translate(-1.495 -114.503)" fill="#44413f"/></g></g></svg>