<svg xmlns="http://www.w3.org/2000/svg" width="30.876" height="30.876" viewBox="0 0 30.876 30.876"><g transform="translate(-4832.893 -2418.682)"><path d="M60.162,42.95c-1.728,1.728-5.387-1.931-9.757-6.3l-3.557-4.523c-2.744-2.693-5.59-5.183-9.249-8.182l-1.575-1.575c-.407-.407-.864-.762-1.27-1.118A44.175,44.175,0,0,1,31.145,18.1c-.762-.762-1.931-2.287-.559-3.608,1.728-1.728,3.252-.407,4.32.661l3.354,3.354c1.931,1.575,7.013,6.047,9.706,8.741.915.915,1.931,2.033,3,3.3,1.321,1.575,2.9,3.4,4.777,5.285.559.559,1.22,1.067,1.931,1.677.864.661,1.829,1.575,2.592,2.287A2.337,2.337,0,0,1,60.162,42.95Z" transform="translate(4802.941 2405.568)" fill="#44413f"/><path d="M60.35,13.255c1.728,1.728-1.931,5.387-6.3,9.757L49.525,26.57a111.806,111.806,0,0,0-8.182,9.249l-1.575,1.575c-.407.407-.762.864-1.118,1.27A44.175,44.175,0,0,1,35.5,42.273c-.762.762-2.287,1.931-3.608.559-1.728-1.728-.407-3.252.661-4.32l3.354-3.354c1.575-1.931,6.047-7.013,8.741-9.706.915-.915,2.033-1.931,3.3-3,1.575-1.321,3.4-2.9,5.285-4.777.559-.559,1.067-1.22,1.677-1.931.661-.864,1.575-1.829,2.287-2.592A2.337,2.337,0,0,1,60.35,13.255Z" transform="translate(4802.398 2406.093)" fill="#44413f"/></g></svg>