<svg xmlns="http://www.w3.org/2000/svg" xmlns:xlink="http://www.w3.org/1999/xlink" width="34.812" height="31.884" viewBox="0 0 34.812 31.884"><defs><clipPath id="a"><rect width="34.812" height="31.884" fill="#44413f" stroke="#44413f" stroke-width="1"/></clipPath></defs><g transform="translate(0 0)"><g transform="translate(0 0)" clip-path="url(#a)"><path d="M.042,13.31C.08,4.322,9.166-.327,17.2.018,25.691.383,35.767,7.3,34.74,16.642,33.212,29.472,17.472,34.935,6.522,30.2.5,26.957-.209,19.426.042,13.31m23.619-1.535c.063,2.438,2.378,2.215,4.208,2.666,1.841.129,5.648,2.21,4.682-1.241-.576-2.229-3.437-9.753-5.53-5.317-.753,1.712-3.192,1.876-3.361,3.892m5.312,4.407c-1.338.277-4.185-1.82-4.692.006.487,1.6-1.243,4.116.374,5.061,3.913,1.892,2.731,6.219,6.117.271,1.02-3.043,2.514-4.784-1.8-5.337m-6.879-1.2c-4.647-.423-7.27-1.121-5.7,4.6,1.6-.128,4.386,1.183,5.49.161.143-1.559,1.168-3.275.211-4.756m-4.23-4.754c1.062-.248,2.626.264,3.3-.533-.141-1.462-2.782-9.115-4.235-6.237-.264,1.865-2.288,7.092.933,6.77M8.434,19.045c.267,2.028,3.093.2,4.573.494,1.714-.187.8-3.5.165-4.574-4.2.21-4.84-1.164-4.739,4.08M9.78,9.18c2.3.778,4.714,1.28,4.342-1.95-.006-1.2.721-2.248.555-3.355-1.334-2.983-5.055,3.8-4.9,5.3m.285,12.485c-1.432,1.373,3.787,6.967,5.355,6.2-2.515-5.513.759-6.849-5.355-6.2m10.452,7.009c10.636-2.243,2.572-8.719,1.622-4.155-.176.954-3.41,4.115-1.622,4.155m-4.026-5.763c.1,9.3,2.368,4.219,4.585-.787-.584-.592-5.333-.834-4.585.787M20.5,3.775a19.094,19.094,0,0,0,1.481,2.867c.217.652.408,2.324,1.379,2.086.862-1.015,2.319-2.084,2.269-3.465C25,3.9,21.538,2.438,20.5,3.775M6.235,16.436c-.122-1.032-2.4-.613-4-.368A17.98,17.98,0,0,0,2.8,22.225c.353,1.3,2.567-.708,3.278-1.022,1.073-.788.278-3.733.155-4.766M2.544,14.144c1.071.226,2.579.478,3.209,0,.738-.565,1.05-2.6,1.178-3.663.218-1.822-1.566-2.232-2.977-2.707a21.062,21.062,0,0,0-1.41,6.375m9.908-.572c1.27.163,1.549-1.175.775-2.023A15.992,15.992,0,0,0,9.4,10.635c-2.173,2.764.951,2.92,3.051,2.936M6.614,22.98c-5.113.936-1.581,5.351,1.857,4.478,1.042-.265-1.2-4.138-1.857-4.478m14.632-9.5,0-.024c1.436.188.944-1.057.462-1.8-1.509.049-3.122.877-4.712.328-.817-.2-1.488.729-.936,1.275,1.7.245,3.472-.226,5.183.225M7.845,3.414c-.605.463-2.728,1.742-2.628,2.793.046.478.55.908,1.865,1.194,1.081.234,3.707-5.558.764-3.988" transform="translate(0 0)" fill="#44413f" stroke="#44413f" stroke-width="1"/></g></g></svg>