<svg xmlns="http://www.w3.org/2000/svg" xmlns:xlink="http://www.w3.org/1999/xlink" width="26.041" height="29.596" viewBox="0 0 26.041 29.596"><defs><clipPath id="a"><rect width="26.041" height="29.596" transform="translate(0 0)" fill="#44413f"/></clipPath></defs><g transform="translate(0 0)"><g clip-path="url(#a)"><path d="M10.767,9.212c2.141-1.118,2.744-1.512,3.674-2.023,1.326-.628,2.628-1.4,2.628-1.4a6.771,6.771,0,0,1-.346-2.786A3.787,3.787,0,0,1,18.6.738C21-.852,23.625.379,25.113,2.053c1.651,1.858,1.017,5.109-1.638,6.509-2.908,1.533-3.6.75-5.382-.908a66.844,66.844,0,0,1-6.675,3.977c-1.744.883-2.988,1.6-2.988,1.6a2.316,2.316,0,0,1,0,2.093s3.232,2.136,4.29,2.686c1.877.973,4.179,2.743,6.245,3.524,1.308-.988,2.148-.916,3.765-.646a4.5,4.5,0,0,1,3.151,5.529q-.044.155-.1.306c-.819,2.253-1.867,2.834-4.448,2.869a8.161,8.161,0,0,1-2.2-.419,4.007,4.007,0,0,1-1.814-5.058s-3.246-2.3-4.605-3.14c-1.671-1.036-4.637-2.745-5.79-3.348-1.675.976-2.358,1.2-3.969.718A3.884,3.884,0,0,1,.013,14.265a4.238,4.238,0,0,1,3.04-3.989,3.776,3.776,0,0,1,3.991.752l1.607-.676" fill="#44413f"/></g></g></svg>