<svg xmlns="http://www.w3.org/2000/svg" width="59.647" height="31.981" viewBox="0 0 59.647 31.981"><g transform="translate(-265.255 -374.606)"><path d="M380.174,375.59a.3.3,0,0,0,.035-.088.6.6,0,0,1,.477-.407.846.846,0,0,1,.654.106.945.945,0,0,1,.23.23.751.751,0,0,1,.088.124c.018-.035.035-.053.035-.088a.72.72,0,0,1,.583-.407,1.124,1.124,0,0,1,.636.088.943.943,0,0,1,.566.566c0,.018.018.035.035.071a.749.749,0,0,1,.088-.124,1.018,1.018,0,0,1,.849-.46,3,3,0,0,1,.407.018.585.585,0,0,1,.424.336c.035.071.071.141.106.23l.053.053.053-.053c.035-.071.035-.141.071-.194a.8.8,0,0,1,.354-.371,1.271,1.271,0,0,1,.884-.071.336.336,0,0,1,.194.124c.035.053.088.106.124.159a.787.787,0,0,1,.088.6,1.717,1.717,0,0,1-.707,1.1,1.973,1.973,0,0,1-.742.318c-.265.053-.548.124-.831.159a11.682,11.682,0,0,1-1.75.141h-.672c-.407-.018-.8-.071-1.2-.071-.389,0-.778-.106-1.167-.141a7.243,7.243,0,0,1-.849-.177,1.506,1.506,0,0,1-.654-.371.741.741,0,0,1-.159-.247,3.021,3.021,0,0,1-.159-.53.79.79,0,0,1,.053-.495.727.727,0,0,1,.318-.336,1.277,1.277,0,0,1,.354-.159,1.556,1.556,0,0,1,.265-.088.754.754,0,0,1,.619.247,2.29,2.29,0,0,1,.247.212" transform="translate(-93.061 -0.366)" fill="#fff"/><path d="M266.748,510.609a2.949,2.949,0,0,1-1.078-.336.482.482,0,0,1-.265-.23,1.012,1.012,0,0,1-.141-.6.663.663,0,0,1,.354-.566.834.834,0,0,1,.583-.071c.088.018.194.035.3.053a.347.347,0,0,1,.283.23.062.062,0,0,1,.018.035c.106-.212.194-.424.477-.442a.533.533,0,0,1,.583.265c.018-.018.035-.018.053-.035a.551.551,0,0,1,.477-.159,4.741,4.741,0,0,1,.477.124.4.4,0,0,1,.283.389.609.609,0,0,1-.071.354,1.192,1.192,0,0,1-.742.742,3.264,3.264,0,0,1-1.008.265c-.071,0-.336.018-.389.018-.018-.035-.159-.035-.194-.035" transform="translate(0 -110.371)" fill="#fff"/><path d="M542.859,516.311c.636.6,1.237,1.167,1.856,1.732.194.194.407.371.6.566a.262.262,0,0,1,0,.23c-.371.424-.76.849-1.131,1.273-.106.124-.159.124-.265-.018-.283-.336-.583-.654-.884-.955-.336-.336-.672-.654-1.061-1.043.018.442.018.8.053,1.131.088.672.088.672-.495.689-.495.018-.972.053-1.467.071a.19.19,0,0,1-.141-.159c-.053-.707-.106-1.432-.124-2.139a22.174,22.174,0,0,0-.159-3.43c-.071-.389-.106-.778-.141-1.184,0-.035.053-.141.088-.141.247-.018.495,0,.725-.018l1.326-.053c.23,0,.194.194.212.354.018.424.053.866.071,1.326.318-.283.6-.548.884-.778.495-.389,1.008-.76,1.5-1.131.035-.035.159,0,.194.053.283.424.566.866.831,1.308.018.018-.018.106-.035.124-.3.265-.6.513-.9.778-.318.283-.6.566-.919.849a4.7,4.7,0,0,1-.619.566" transform="translate(-225.764 -113.615)" fill="#44413f"/><path d="M443.909,426.441c.035,1.344.088,2.6.106,3.836,0,.336,0,.672-.018,1.025-.035.371-.318.283-.46.283-.46.018-.9.035-1.361.035-.177,0-.212-.053-.212-.265,0-.672-.018-1.52-.018-2.192,0-.177-.053-.247-.212-.247-.389,0-.318.018-.725.018-.124,0-.194.053-.177.247.053.742.071,1.485.088,2.227a.239.239,0,0,1-.159.159c-.407.018-.813,0-1.22,0-.212,0-.424,0-.619-.018-.035,0-.106-.088-.106-.141-.018-1.273-.018-2.528-.018-3.8,0-.919,0-1.856.018-2.775a.249.249,0,0,1,.141-.177c.813,0,1.061.018,1.874.018.159,0,.247.053.247.23.035.778.088,1.556.106,2.333,0,.177.884.124.884.071.035-.8.053-1.75.106-2.546,0-.053.088-.124.141-.124q.742-.027,1.485,0c.053,0,.141.106.141.159-.018.513-.035,1.2-.035,1.644" transform="translate(-142.866 -41.176)" fill="#44413f"/><path d="M499.909,424.46c0,.583-.018,1.114,0,1.662.018.725-.106,1.467-.035,2.192.071.6.035.919.495.636a1.066,1.066,0,0,0,.424-.76c.071-.955.053-1.927.053-2.882,0-.247.018-.513.035-.76a.15.15,0,0,1,.124-.124c.53-.035.972-.053,1.5-.071a.347.347,0,0,1,.177.053c0,.442.071.849.071,1.273a11.49,11.49,0,0,1-.053,1.732c.018.283-.106,1.025-.053,1.29a3.291,3.291,0,0,0,.778,1.043c.407.318.424.371.071.8a5.739,5.739,0,0,1-.619.689.284.284,0,0,1-.265.018c-.265-.23-.212-.265-.407-.513-.035-.018-.23-.442-.424-.389a1.676,1.676,0,0,1-.9.76c-.725.265-.813.389-1.556.088a2.078,2.078,0,0,1-1.379-2c-.071-1.114-.053-2.21-.141-3.323a11.354,11.354,0,0,1,0-1.344c.018-.318.247-.177.371-.177.548,0,.972.035,1.52.071a.66.66,0,0,1,.212.035" transform="translate(-191.423 -40.928)" fill="#44413f"/><path d="M533.3,377.769a7.07,7.07,0,0,1,.849.141c.318.071.477.371.6.689a5,5,0,0,1,.247,1.7v1.591c0,.141-.035.141-.194.141-.3-.018-.6-.018-.9-.053-.035,0-.106-.124-.106-.177-.018-.548-.018-1.025-.035-1.573a.826.826,0,0,0-.053-.3c-.035-.071-.106-.177-.177-.177a.233.233,0,0,0-.159.177c-.018.654-.035,1.22-.035,1.874,0,.141,0,.194-.141.177a7.673,7.673,0,0,0-.9,0c-.177.018-.23-.018-.23-.247-.018-.972-.053-1.874-.071-2.864-.018-.583.035-1.167.018-1.732-.018-.619-.071-1.4-.106-2.033,0-.071.088-.194.141-.194a5.316,5.316,0,0,1,.919,0c.088.018.194.177.212.283.035.831.071,1.8.124,2.581" transform="translate(-219.508 -0.229)" fill="#44413f"/><path d="M533.2,426.927c.018.283.3.3.548.265a1.915,1.915,0,0,1,2,1.22,2.058,2.058,0,0,1-.831,2.864,3.83,3.83,0,0,1-1.715.3,10.661,10.661,0,0,1-1.5-.035.325.325,0,0,1-.247-.23,1.991,1.991,0,0,1-.035-.566c0-.283.018-.566,0-.849s.053-.407.318-.389c.548.018,1.1,0,1.644,0h.053c.371,0,.6-.159.619-.424.018-.23-.212-.442-.566-.495a2.143,2.143,0,0,0-.672-.018,1.317,1.317,0,0,1-1.379-.689,3.15,3.15,0,0,1-.3-2.051,1.164,1.164,0,0,1,.866-.884,9.839,9.839,0,0,1,1.45-.177c.6-.035,1.2-.053,1.785-.071.035,0,.124.053.124.088,0,.513-.018,1.043-.053,1.556,0,.053-.177.106-.265.124-.477.053-.955.071-1.432.141-.124.018-.389.124-.407.318" transform="translate(-218.826 -41.238)" fill="#44413f"/><path d="M579.063,512.9h.955c.053,0,.141.071.141.106.018.495.018,1.008.018,1.5,0,.141-.053.159-.194.141a2.2,2.2,0,0,0-1.308.018,1.176,1.176,0,0,0-.46.424.428.428,0,0,0,.3.636,4.532,4.532,0,0,1,.99.265c.707.371,1.043.424,1.114,1.52a4.813,4.813,0,0,1-.053,1.237,1.359,1.359,0,0,1-.866,1.131,5.31,5.31,0,0,1-2.4.283,3.207,3.207,0,0,0-.566.053c-.124.018-.194-.035-.194-.194,0-.566-.035-1.131-.035-1.7,0-.053.071-.141.124-.141.3-.018.6.018.884,0,.424-.035.831-.106,1.255-.177a.382.382,0,0,0,.283-.477c-.035-.177-.124-.407-.247-.46a9.586,9.586,0,0,0-.99-.389c-.46-.194-.919-.354-1.114-.955a2.257,2.257,0,0,1,.283-1.909,1.819,1.819,0,0,1,1.573-.884c.194,0,.354-.035.513-.035Z" transform="translate(-256.223 -113.846)" fill="#44413f"/><path d="M561.619,390.052a6.263,6.263,0,0,1,1.149-.018c.513.124.725.283.778.831.088.8.088,1.609.141,2.422.018.23,0,.389.035.619.053.265-.053.3-.247.3-.283-.018-.548-.018-.831-.053-.035,0-.106-.088-.106-.141-.035-.76-.053-1.609-.088-2.369-.3-.177-.513-.212-.636-.035-.018.071-.071.141-.071.194.018.354.053.725.053,1.078,0,.371-.035.831-.071,1.22,0,.035-.071.071-.088.071-.265,0-.53,0-.8-.018-.035,0-.106-.053-.106-.088-.018-.583-.018-1.237-.035-1.821v-1.361c0-.389.018-.76.053-1.131,0-.035.071-.088.124-.088a1.512,1.512,0,0,1,.283,0c.389-.018.389-.018.46.389" transform="translate(-243.216 -12.389)" fill="#44413f"/><path d="M581.284,482.71h-1.061c-.035,0-.124-.071-.124-.124V481.4c0-.23.177-.177.283-.177.283,0,.583.035.866.018a1.317,1.317,0,0,0,.495-.194.256.256,0,0,0,.018-.424,2.254,2.254,0,0,0-.442-.265,1.223,1.223,0,0,1-.742-1.326.968.968,0,0,1,.513-.778,3.673,3.673,0,0,1,2.28-.371.274.274,0,0,1,.141.194,5.994,5.994,0,0,1,.035.8c0,.177-.035.265-.212.247a1.442,1.442,0,0,0-.477,0c-.124.018-.318.141-.318.194a.867.867,0,0,0,.177.46c.071.106.23.124.354.177a1.117,1.117,0,0,1,.53,1.5,1.825,1.825,0,0,1-.318.672,2.414,2.414,0,0,1-.866.46,8.97,8.97,0,0,1-1.184.124c.053.018.053,0,.053,0" transform="translate(-259.187 -84.982)" fill="#44413f"/><path d="M439.4,481.487c.336-.018.725-.053,1.114-.088.053,0,.141-.106.141-.141,0-.088-.053-.23-.106-.247a4.65,4.65,0,0,0-.689-.106,1.042,1.042,0,0,1-.866-.972,1.677,1.677,0,0,1,1.962-1.856c.247.035.495.106.742.159a.114.114,0,0,1,.088.088v.884c0,.265-.177.265-.336.283-.3.035-.619.018-.919.071-.106.018-.194.159-.3.23.106.088.23.23.336.247a2.052,2.052,0,0,1,1.008.23,1.334,1.334,0,0,1,.53,1.22,1.145,1.145,0,0,1-.566,1.025,2.564,2.564,0,0,1-1.556.354,7.975,7.975,0,0,0-.919-.018.155.155,0,0,1-.124-.106q-.027-.583,0-1.167c0-.035.124-.088.177-.106a1.838,1.838,0,0,1,.283.018" transform="translate(-142.969 -85.156)" fill="#44413f"/><path d="M496.6,381.261c.018-1.237.053-2.493.053-3.73,0-.813.053-1.308,0-2.121-.018-.336.053-.389.336-.354a5.974,5.974,0,0,0,.8,0c.053,0,.141.106.141.159.035,1.1-.018,1.874-.035,2.97,0,1.114-.071,3.624-.088,3.765-.018.159.018.336-.23.23a1.585,1.585,0,0,0-.707-.018c-.177.018-.265-.035-.265-.283a2.411,2.411,0,0,0,0-.619h0" transform="translate(-190.448 -0.363)" fill="#44413f"/><path d="M516.89,392.965a2.5,2.5,0,0,0,.318.141,1.264,1.264,0,0,1,.8.654,1.445,1.445,0,0,1-.654,1.892,2.992,2.992,0,0,1-1.662.194.3.3,0,0,1-.177-.23,6.8,6.8,0,0,1,.018-.849c0-.035.071-.071.106-.088.3-.035.619-.035.919-.088a.575.575,0,0,0,.3-.124c.071-.071.177-.212.159-.283a.418.418,0,0,0-.247-.212,5.023,5.023,0,0,1-.866-.3.9.9,0,0,1-.407-.849.92.92,0,0,1,.442-.813,2.419,2.419,0,0,1,1.556-.283c.035,0,.106.053.106.088a5.224,5.224,0,0,1,.035.742.222.222,0,0,1-.265.247,2.108,2.108,0,0,0-.46.088c-.018.018-.018.035-.018.071" transform="translate(-206.001 -14.082)" fill="#44413f"/><path d="M479.7,478.655a1.63,1.63,0,0,1,1.149-.566,2.23,2.23,0,0,1,1.078.247,1.4,1.4,0,0,1,.707,1.237c.053.742.035,1.662.053,2.422a3.735,3.735,0,0,0,.035.46c.053.495.018.548-.424.477-.053,0-.106-.018-.159-.018-.636-.018-.46.053-.513-.654-.053-.548.018-1.255,0-1.821-.018-.636-.513-1.149-1.131-.9a.77.77,0,0,0-.407.725c-.035.672-.018,1.432-.018,2.1.018.566.018.548-.442.566a4.281,4.281,0,0,0-.672-.035c-.212.018-.3-.018-.3-.318,0-.9-.035-1.8-.053-2.722,0-.6,0-1.043.018-1.626a.159.159,0,0,1,.106-.106c.283,0,.583,0,.866.018.035,0,.106.088.106.141,0,.177,0,.194,0,.371" transform="translate(-175.63 -85.188)" fill="#44413f"/><path d="M562.506,424.695v1.1a.239.239,0,0,1-.159.159c-.424,0-.849-.035-1.255-.053-.177-.018-.3.035-.283.3.018.177,0,.548,0,.8.495-.053.707.071,1.167.018.23-.035.3.035.283.3-.018.318,0,.636-.018.937,0,.071-.124.194-.194.212-.424.035-.6.035-1.025.053a.2.2,0,0,0-.124.141v1.5h1.856a3.657,3.657,0,0,1,.619.053c.053,0,.124.088.124.141.018.389-.035.689-.035,1.078,0,.053-.071.159-.124.159-.742.053-1.768-.071-2.528-.018-.265.018-.53,0-.8.018-.194.018-.283-.088-.283-.3-.018-1.4-.035-2.793-.071-4.207-.018-.707-.035-1.4-.071-2.1-.018-.23.071-.265.212-.265.866-.018,1.715-.035,2.581-.035.035-.018.106.018.124.018" transform="translate(-242.3 -41.215)" fill="#44413f"/><path d="M453.447,395.378c-.23.3-.371.442-.654.442a5.319,5.319,0,0,1-.919,0c-.513-.088-.689-.548-.813-1.1a9.361,9.361,0,0,1-.177-.972,7.515,7.515,0,0,1,.088-2.051,2.886,2.886,0,0,1,1.078-.035c.035,0,.088.124.088.194-.018.354-.035,1.4-.053,1.732a2.417,2.417,0,0,0,.035.513c.071.354.265.566.513.336a1.372,1.372,0,0,0,.371-1.008c0-.23-.035-1.308-.053-1.538-.018-.159.035-.247.194-.23.23.035.6-.053.831-.018.124.018.124.088.141.654,0,.389,0,.548-.035,1.131a5.414,5.414,0,0,1-.177.972,2.116,2.116,0,0,0,.46.23c.247.071.212.194.124.371-.106.194-.194.407-.3.6-.071.141-.177.212-.318.071a2.432,2.432,0,0,0-.424-.3" transform="translate(-152.793 -14.019)" fill="#44413f"/><path d="M534.773,478.531a2.392,2.392,0,0,1,1.909-.831c.212,0,.424,0,.354.389a3.18,3.18,0,0,0,.018.707c.018.159,0,.23-.177.265a5.747,5.747,0,0,0-1.184.371,1.889,1.889,0,0,0-.778,1.131c-.124.707.071,1.167-.035,1.874-.035.177-.071.265-.247.247-.265-.018-.672,0-.955-.035-.071,0-.177-.141-.177-.212,0-.831,0-1.662.018-2.493,0-.636,0-1.273.018-1.892,0-.088.124-.194.194-.247.071-.035.177.018.265.035.212.018.46-.035.6.088.124.071.124.371.177.6" transform="translate(-220.825 -84.869)" fill="#44413f"/><path d="M585.68,457.517c-.071,0-.194-.071-.194-.106a3.928,3.928,0,0,1,.018-1.043.2.2,0,0,1,.23-.159c.566-.018,1.4.018,1.945-.018.318-.018.354.088.354.265,0,.318.018.636.018.937,0,.053-.106.124-.177.124-.212.035-1.768.018-2.192,0" transform="translate(-263.6 -67.161)" fill="#44413f"/><path d="M576.915,472.285c.088-.177.194-.407.336-.442.23-.071.371.177.371.407a9.387,9.387,0,0,1-.053,1.22.412.412,0,0,1-.247.265.359.359,0,0,1-.3-.194,4.131,4.131,0,0,1-.106-1.255" transform="translate(-256.55 -80.037)" fill="#44413f"/><path d="M551.2,394.316v-2.4c0-.071.106-.212.177-.212a6.951,6.951,0,0,1,.849.106c.035,0,.106.106.106.159.035.707.035,1.432.071,2.139.018.53.053,1.061.071,1.591,0,.053-.088.177-.141.177a7.387,7.387,0,0,1-.884-.035.192.192,0,0,1-.141-.141c-.035-.424-.071-.831-.106-1.379" transform="translate(-235.396 -14.072)" fill="#44413f"/><path d="M551.842,384.906a.443.443,0,0,1-.442-.495c0-.23.212-.53.371-.46a.844.844,0,0,1,.477.407.438.438,0,0,1-.407.548" transform="translate(-235.561 -7.684)" fill="#44413f"/><path d="M507.9,392.262c.018,1.061.053,2.121.071,3.182,0,.159,0,.3-.194.3s-.389.071-.6.088-.318-.159-.283-.354a22.465,22.465,0,0,0-.088-3.447c0-.247.018-.389.283-.336a1.281,1.281,0,0,0,.513-.035c.177-.018.318-.035.265.265a3.241,3.241,0,0,0,.035.336" transform="translate(-198.845 -14.033)" fill="#44413f"/><path d="M507.824,385.008a.44.44,0,0,1-.424-.407c0-.336.194-.6.46-.6a.512.512,0,0,1-.035,1.008" transform="translate(-199.339 -7.733)" fill="#44413f"/><path d="M443.284,517.264a7.064,7.064,0,0,1,.689.371,1.8,1.8,0,0,1,.742,1.344,3.083,3.083,0,0,1,0,.9c0,.566-.407.831-.813,1.043a4.306,4.306,0,0,1-2.493.371c-.513-.071-1.043-.071-1.573-.124a.611.611,0,0,1-.354-.124.494.494,0,0,1-.106-.318c0-.672.018-1.361,0-2.033-.018-.831-.106-1.662-.088-2.493a17.674,17.674,0,0,1,.212-1.945c0-.071.124-.159.194-.159,1.1,0,2.21.035,3.306.035a1.3,1.3,0,0,1,1.2,1.237,1.765,1.765,0,0,1-.3,1.4,3.167,3.167,0,0,1-.619.495" transform="translate(-143.267 -114.834)" fill="#44413f"/><path d="M449.106,523.713a4.54,4.54,0,0,0,.018.654c.018.071.124.177.177.177.513-.018,1.025-.053,1.556-.088a.7.7,0,0,0,.672-.76c0-.442-.159-.672-.619-.725-.53-.053-1.078-.053-1.609-.053-.071,0-.177.124-.194.194a3.41,3.41,0,0,0,0,.6m-.071-2.793a10.847,10.847,0,0,0,1.1-.053c.3-.053.672.018.831-.407.106-.318,0-.707-.247-.725-.53-.035-1.043-.035-1.573-.035-.053,0-.141.053-.141.088C449.018,520.2,449.035,520.566,449.035,520.92Z" transform="translate(-151.263 -119.444)" fill="#fff"/><path d="M440.546,381.776c.018.212-.035.265-.23.265-.442-.035-1.008.018-1.45,0a.233.233,0,0,1-.177-.159c-.053-1.131,0-2.28,0-3.412,0-1.1-.035-1.874,0-2.97,0-.088-.035-.583.265-.548.566-.035,1.237-.053,1.8-.053a1.8,1.8,0,0,1,1.4.371,1.821,1.821,0,0,1-.053,2.015,1.962,1.962,0,0,1-1.45.424c-.177-.018-.212.071-.212.23.018.194.071,2.988.106,3.836" transform="translate(-142.756 -0.241)" fill="#44413f"/><path d="M447.63,379.288a.744.744,0,0,1,.354.619c0,.336-.035.247-.318.389a1.9,1.9,0,0,1-1.008.106c-.053.018-.194,0-.194-.212a3.911,3.911,0,0,1,0-.548c-.018-.424-.018-.442.354-.424a1.7,1.7,0,0,1,.813.071" transform="translate(-149.168 -3.782)" fill="#fff"/><path d="M474.2,377.663a1.861,1.861,0,0,1,2.015.636,2.189,2.189,0,0,1,.407,1.4,3.2,3.2,0,0,1-.53,1.591,1.733,1.733,0,0,1-1.149.53c-.424,0-.742-.442-.849-.725-.035-.088-.124-.035-.141.035a1.272,1.272,0,0,0-.018.318c0,.247.053.354-.124.371a3.843,3.843,0,0,1-.9,0c-.106-.018-.124-.336-.124-.513-.018-.919,0-1.839-.018-2.775s-.053-1.591-.071-2.528c0-.318,0-.955.035-1.255,0-.053.177-.088.265-.088a4.62,4.62,0,0,0,.707-.035c.389-.053.424,0,.424.477-.018.831.071,1.7.071,2.563" transform="translate(-170.773 0)" fill="#44413f"/><path d="M482.1,399.872c.018-.689.23-.831.707-.8a.574.574,0,0,1,.53.636.672.672,0,0,1-.654.689c-.389,0-.6-.194-.583-.53" transform="translate(-178.507 -20.141)" fill="#fff"/><path d="M508.058,468.73c0-.071.053-.194,0-.194-.3-.035-1.025-.035-1.344-.035-.407,0-.8.018-1.2.053-.035,0-.106.124-.106.194,0,.389.018.566.018.955,0,.672-.018.672-.548.707a1.808,1.808,0,0,0-1.644,1.008,3.954,3.954,0,0,0-.124,2.263,2.331,2.331,0,0,0,.884,1.273c.583.424,2.015.071,2.1-.76,0,.212-.018.389,0,.566,0,.088.053.247.106.265a1.525,1.525,0,0,0,.495.035c.336-.018.672.018,1.008,0,.283,0,.389-.194.336-.53a2.361,2.361,0,0,1,0-.354c-.018-.742.035-.937,0-1.662-.035-1.326.088-2.44.018-3.783m-2.7,4.49c-.407,0-.76-.23-.725-.654a.765.765,0,0,1,.813-.742c.424,0,.566.194.583.742A.593.593,0,0,1,505.354,473.22Z" transform="translate(-195.719 -77.295)" fill="#fff"/><path d="M473.067,513.5a5.905,5.905,0,0,1,1.432.371,4.418,4.418,0,0,1,1.167,1.061,3.02,3.02,0,0,1,.636,1.679,3.454,3.454,0,0,1-.265,1.785,4.824,4.824,0,0,1-1.45,1.856,2.465,2.465,0,0,1-3.005-.088,5.542,5.542,0,0,1-.689-1.326,6.528,6.528,0,0,1-.424-3.023,2.026,2.026,0,0,1,.707-1.591,2.942,2.942,0,0,1,1.892-.725" transform="translate(-168.93 -114.34)" fill="#44413f"/><path d="M482.149,527.2a.715.715,0,0,0-.76.725.845.845,0,0,0,.813.937,1.036,1.036,0,0,0,.866-.937c0-.318-.53-.725-.919-.725" transform="translate(-177.924 -125.615)" fill="#fff"/><path d="M482.157,527.2c.389,0,.919.407.919.707a1.019,1.019,0,0,1-.866.937.855.855,0,0,1-.813-.937.692.692,0,0,1,.76-.707" transform="translate(-177.932 -125.615)" fill="#fff"/><path d="M511.156,516.292a19.9,19.9,0,0,1-.477,2.316,5.871,5.871,0,0,1-.884,1.679,2.007,2.007,0,0,1-1.043.513,3.3,3.3,0,0,1-2.882-1.308,3.137,3.137,0,0,1-.442-2.21,10.47,10.47,0,0,1,.689-2.369,2.083,2.083,0,0,1,2.139-1.291,3.166,3.166,0,0,1,2.139.972,3.322,3.322,0,0,1,.76,1.7" transform="translate(-197.668 -114.428)" fill="#44413f"/><path d="M518.6,529.609a.738.738,0,0,0,.689.636.538.538,0,0,0,.513-.513c.018-.46-.265-.548-.8-.636-.177-.018-.407.265-.407.513" transform="translate(-208.559 -127.179)" fill="#fff"/><path d="M518.6,529.609c0-.247.23-.53.407-.513.53.071.813.159.8.636a.537.537,0,0,1-.513.513.738.738,0,0,1-.689-.636" transform="translate(-208.559 -127.179)" fill="#fff"/><path d="M460.6,482.044a1.392,1.392,0,0,1-1.326.8q-.875,0-1.008-1.008a1.56,1.56,0,0,1,.849-1.839,1.192,1.192,0,0,1,.919.035c.088.053.247.159.336.088a2.235,2.235,0,0,0-.035-.955c-.018-.141-.318-.177-.424-.159-.071,0-.159.177-.177.265.018.247-.071.336-.194.354a7.665,7.665,0,0,1-.9,0c-.124,0-.194-.318-.124-.654a1.231,1.231,0,0,1,.53-.849,1.986,1.986,0,0,1,1.114-.177,1.311,1.311,0,0,1,1.255.9,9.34,9.34,0,0,1,.106,2.811c-.018.318,0,.636-.018.955a.224.224,0,0,1-.124.177,2.419,2.419,0,0,1-.513.035c-.247,0-.336-.106-.283-.407a3.018,3.018,0,0,1,.018-.371" transform="translate(-158.864 -85.059)" fill="#44413f"/><path d="M463.23,494.72a.5.5,0,0,1-.53-.513.568.568,0,0,1,.53-.513c.371-.018.513.177.548.6.035.247-.194.407-.548.424" transform="translate(-162.541 -98.035)" fill="#fff"/><path d="M557.362,478.492a1.892,1.892,0,0,0-1.7-.725c-.265.053-.6.018-.778.177a2.12,2.12,0,0,0-.725,1.414c-.018.194-.035.389-.053.566a3.534,3.534,0,0,0,.177,1.768,1.824,1.824,0,0,0,2.1.866,2.507,2.507,0,0,0,1.45-2.068,2.556,2.556,0,0,0-.477-2m-.8,1.591c-.035.354-.177.725-.636.672-.389.018-.619-.23-.566-.76a.661.661,0,0,1,.424-.442C556.143,479.482,556.62,479.73,556.567,480.083Z" transform="translate(-237.757 -84.918)" fill="#fff"/><path d="M474.329,428.132a4.28,4.28,0,0,1-.46,2.121,3.288,3.288,0,0,1-.371.495,1.805,1.805,0,0,1-2.775.247,3.136,3.136,0,0,1-.707-1.167,5.022,5.022,0,0,1-.424-1.644,9.311,9.311,0,0,1,.23-2.086c.318-1.52,2-1.7,3.041-1.237a2.353,2.353,0,0,1,1.149,1.255,4.831,4.831,0,0,1,.318,2.015" transform="translate(-168.212 -41.188)" fill="#44413f"/><path d="M478.755,440.946a.773.773,0,0,0,.831-.813.888.888,0,0,0-.831-1.043c-.407-.035-.955.354-.955.742.018.548.159,1.149.955,1.114" transform="translate(-174.972 -53.082)" fill="#fff"/><path d="M581.223,390.533c-.159-.177-.354-.336-.513-.513-.141-.159-.265-.124-.389.035-.177.212-.354.389-.53.583-.088-.071-.141-.141-.212-.194a1.381,1.381,0,0,0-1.2-.124,1.274,1.274,0,0,0-.477.265,2.443,2.443,0,0,0-.672,2.192,2.26,2.26,0,0,0,.53,1.043,1.92,1.92,0,0,0-.106,2.245c-.247.212-.548.23-.778.937a2.926,2.926,0,0,0,.124,1.821,1.974,1.974,0,0,0,1.2.866,6.478,6.478,0,0,0,1.432.018,1.653,1.653,0,0,0,1.344-1.556c.071-.884,0-1.874-.884-2.245a4.778,4.778,0,0,0-.707-.247.7.7,0,0,1-.283-1.025c.053-.035.106-.106.159-.124a2.632,2.632,0,0,0,.919-.336,1.907,1.907,0,0,0,.513-2.387.113.113,0,0,1,0-.106,3.819,3.819,0,0,1,.566-.707c.177-.212.088-.318-.035-.442m-1.679,7.336c.018.389-.088.53-.407.6a4.364,4.364,0,0,1-1.1-.106.729.729,0,0,1-.265-.495,2.263,2.263,0,0,1,.212-.919c.194-.177.424-.159.654-.265C579.1,396.472,579.526,397.5,579.543,397.869Zm-.566-4.826a.707.707,0,0,1-.583-.689c-.018-.371.283-.8.548-.8a.725.725,0,0,1,.725.707A.7.7,0,0,1,578.978,393.043Z" transform="translate(-256.456 -12.604)" fill="#44413f"/><g transform="translate(266.4 374.676)"><path d="M336.943,385.516a.489.489,0,0,0-.283.742.193.193,0,0,1-.124.3c-.035.018-.088.053-.124.071.018.035.035.088.053.124a.159.159,0,0,1,.018.088c-.018,0-.053.035-.071.018a.487.487,0,0,1-.124-.159.2.2,0,0,1,.177-.247c.106-.018.124-.071.071-.194a.652.652,0,0,1,.071-.689c.106-.141.247-.247.407-.124a1.586,1.586,0,0,1,.159.177c.018.018,0,.053-.018.088-.018-.018-.035-.018-.053-.035a.679.679,0,0,0-.159-.159" transform="translate(-324.875 -383.554)" fill="#44413f"/><path d="M341.269,398.714c-.088.088-.247.141-.3.247-.071.159,0,.23-.035.336,0,.018-.018.035-.035.053,0,0-.035-.018-.035-.035a.436.436,0,0,1,.018-.442c.088-.141.23-.265.389-.159" transform="translate(-328.6 -394.489)" fill="#44413f"/><path d="M300.4,397.009a4.55,4.55,0,0,0-.194-.849,6.816,6.816,0,0,0-.548-.9,7.08,7.08,0,0,0-.566-.849,10.337,10.337,0,0,0-.672-.866c-.053-.053-.831-.6-1.167-.8a7.125,7.125,0,0,0-.919-.371c-.371-.159-.725-.336-1.1-.46-.371-.141-.742-.247-1.114-.371-.23-.071-.583-.159-.813-.247a.748.748,0,0,1-.018-.371c.106-.018.283-.018.318-.071.141-.265.23-.566-.088-.76-.071-.035-.141-.053-.212-.088a.1.1,0,0,1-.053-.088v-.46a.6.6,0,0,0,.23-.354,1.215,1.215,0,0,0-.088-.424.589.589,0,0,1,0-.177.423.423,0,0,0,.124-.654c-.018-.018,0-.053,0-.071V387.3c-.018-.088.035-.177.018-.265a3.907,3.907,0,0,1-.141-.654c-.018-.318.018-.654.018-.972,0-.194-.018-.389.23-.477a.367.367,0,0,0,.247-.389,1.914,1.914,0,0,0-.194-.53c-.053-.106-.177-.212-.194-.318-.018-.247.035-.495.018-.742-.018-.23-.071-.46-.106-.672a1.206,1.206,0,0,0-.53-.9,2.659,2.659,0,0,0-1.52-.265c-.035,0-.053-.018-.088-.035.018-.018.035-.053.053-.071a.192.192,0,0,0-.018-.336l-.689-.477c-.124-.088-.212-.247-.336-.3a4.768,4.768,0,0,0-.725-.124.219.219,0,0,0,.035-.053c.035-.106.141-.265.106-.3-.071-.088-.247-.194-.318-.141a1.231,1.231,0,0,0-.46.389,7.784,7.784,0,0,0-.53.919,4.032,4.032,0,0,0-.354.8c-.141.407.088.8.141,1.2.018.159-.035.212-.177.265a.818.818,0,0,0-.424.3c-.071.088,0,.283.018.424.035.212.053.424.106.636.035.106.177.212.177.3a4.137,4.137,0,0,1-.159,1.043,1.008,1.008,0,0,1-.548.707,3.864,3.864,0,0,1-.407.159,3.268,3.268,0,0,1-.884.177,1.938,1.938,0,0,1-1.414-.866,1.745,1.745,0,0,1-.212-.495c-.053-.194-.088-.407-.141-.619-.035-.106-.124-.212-.124-.318.018-.177.088-.336.124-.513a.909.909,0,0,0-.318-.866c-.035-.018-.071-.071-.141-.088a.394.394,0,0,0-.194-.018c.018-.088,0-.194.018-.283.035-.194.106-.371.124-.566,0-.035.124-.106.194-.106.212,0,.424.106.619.053a.985.985,0,0,0,.742-.919,3.942,3.942,0,0,0-.053-.566c.053.018.071,0,.106,0a.178.178,0,0,0,.053-.018c.018-.018.035-.018.053-.035.124-.124.053-.194.071-.23.018-.018.053,0,.071-.018a.092.092,0,0,0,.071-.035.3.3,0,0,0,.035-.088.245.245,0,0,0-.035-.194c0-.018-.035-.053-.035-.071a.612.612,0,0,0,.23-.407c0-.018.071-.194.106-.194,0,0,.106.088.159.141a.438.438,0,0,0,.371.124.547.547,0,0,0,.354-.477,1.656,1.656,0,0,1,.106-.513,9.347,9.347,0,0,1,.442-.955c.071-.124.194-.265.3-.265.371-.018.477-.141.566-.495a.967.967,0,0,0-.247-.813,2.992,2.992,0,0,0-.566-.495.42.42,0,0,0-.212-.053c-.265-.018-.53.159-.813.018a1.986,1.986,0,0,0-.548-.177,3.773,3.773,0,0,0-.866-.177,1.608,1.608,0,0,0-.6.247c-.283.141-.742.088-1.008.283-.354.247-.53.707-.849.99a.858.858,0,0,0-.265.407,6.08,6.08,0,0,0,.071,1.131c.035.194.177.354.23.548.053.212.106.407.336.442.018,0,.035.035.035.053-.018.071-.035.124-.053.194a3.62,3.62,0,0,0,.018,1.379,1.431,1.431,0,0,1,.018.548c-.071.3-.177.583-.265.866a3.5,3.5,0,0,0-.106.46c-.018.071-.018.141-.035.194-.018,0-.035.035-.071.053-.018.018-.071.053-.088.071-.141.159-.265.23-.424.389-.071.088-.124.177-.265.177a.711.711,0,0,0-.46.141,2.335,2.335,0,0,0-.53.654,7.292,7.292,0,0,0-.424,1.237,10.014,10.014,0,0,0-.159,1.273q-.053.557-.053,1.114c0,.247.071.477.071.725.018.212-.018.442,0,.654.018.46.053.919.088,1.361,0,.071.035.177.071.177a3.646,3.646,0,0,0,.46.053v.707c0,.035,0,.106-.018.106-.035.035-.124.053-.141.035a.97.97,0,0,0-.654-.247.724.724,0,0,0-.654.495,1.241,1.241,0,0,0,.46,1.308,1.779,1.779,0,0,1,.442.3c.177.141.318.318.495.46.124.088.265.141.407.23.035.018.018.124.053.177.177.3.371.583.583.919a14.537,14.537,0,0,0-1.644,2.988c-.035.106-.088.265-.159.265a.63.63,0,0,1-.389-.088,2.5,2.5,0,0,1-1.167-.972c-.177-.336-.354-.689-.53-1.043.3-.035.548-.053.778-.088.124-.018.3-.018.371-.106a1.1,1.1,0,0,0,.212-.46c.088-.407.141-.831.194-1.255a1.619,1.619,0,0,0-.035-.654c-.088-.3-.371-.389-.654-.46-.035-.018-.088-.018-.106-.053-.018-.018.018-.071.035-.106a1.266,1.266,0,0,0,.354-.937c-.018-.371.071-.76.088-1.149a9.544,9.544,0,0,0,.053-.99c0-.159-.053-.336-.177-.336-.106-.053-.141-.088-.177-.088a1.43,1.43,0,0,1-.265.018c-.141-.071-.247-.177-.371-.247-.071-.035-.212-.035-.212-.071-.053-.283-.088-.583-.124-.884a4.251,4.251,0,0,0,.654.053,1.747,1.747,0,0,0,.8-.177c.318-.194.318-.583.336-.937a8.6,8.6,0,0,0-.018-.955c-.018-.354-.035-.707-.088-1.061a5.655,5.655,0,0,0-.177-.742,3.4,3.4,0,0,0-.212-.442c.159-.194.318-.407.495-.636a.991.991,0,0,0,.124-1.114c-.141-.318-.265-.619-.389-.937a.065.065,0,0,1,.053-.018c-.035-.053-.053-.159-.106-.177-.407-.141-.831-.283-1.22-.407,0,.018,0-.035.035-.053l.583-.8c.23-.318.212-.354-.106-.389v-.018c.088-.124.212-.23.283-.354.247-.442.46-.884.689-1.326.141-.283.265-.583.389-.884.018-.053-.053-.212-.088-.212-.283-.035-.548-.035-.831-.053-.053,0-.088-.071-.141-.106.035-.018.053-.018.088-.035l.035-.035a5.8,5.8,0,0,0,.354-.548c.035-.053-.018-.159-.053-.23-.018-.018-.088-.018-.124-.035-.247-.053-.513-.124-.76-.159-.283-.035-.566-.053-.849-.088-.318-.035-.619-.088-.937-.141a6.589,6.589,0,0,0-.831-.071.687.687,0,0,0-.442.088,3.522,3.522,0,0,0-.53.707c-.23.318-.46.619-.672.937a1.566,1.566,0,0,0-.283.6,6.249,6.249,0,0,0,0,.813c0,.088-.071.159-.106.247a.065.065,0,0,0-.053.018c-.088.106-.159.212-.247.318-.336.407-.707.8-1.025,1.22-.141.194-.442.389-.159.707a1.5,1.5,0,0,1,.159.389c.141.247.23.566.53.672.194.071.389.106.619.177-.336.354-.672.672-.972,1.025-.053.053,0,.336.053.371a5.177,5.177,0,0,0,.513.088.755.755,0,0,1,.247.23.228.228,0,0,1-.018.212c-.177.354-.371.707-.548,1.078-.053.106-.106.318.088.354a1.1,1.1,0,0,0,.477-.018c.247-.053.442.035.46.265a4.358,4.358,0,0,0,.053.689c.053.212.018.3-.194.389a10.874,10.874,0,0,0-.972.583c.053.053.088.071.071.088-.035.106-.035.265-.106.318a1.862,1.862,0,0,1-.46.23c-.194.088-.46.124-.389.442a6.883,6.883,0,0,0,.318,1.025c.159.371.336.725.53,1.078a3.123,3.123,0,0,0,.371.566c.212.23.407.548.813.442a.294.294,0,0,1,.194.035c.018.106.053.283,0,.318a5.325,5.325,0,0,1-.6.354.707.707,0,0,0-.407.548,1.022,1.022,0,0,0,.212.636c.265.336.6.619.866.9-.018.124-.018.194-.035.265-.053.548-.071.955.583,1.078l.477.106a.062.062,0,0,1,.035-.018c.177.035.371.071.548.088.3.035.583.053.884.071.071,0,.177.018.194.053a2.469,2.469,0,0,1,.159.513,2.7,2.7,0,0,0,.672,1.538,1.5,1.5,0,0,0,.265.318,6.4,6.4,0,0,0,.725.477,4.857,4.857,0,0,0,.53.247c.053.035.141.106.141.124a6.273,6.273,0,0,1-.371.955c-.283.566-.6,1.114-.937,1.662a5.59,5.59,0,0,1-1.874,1.609c-.247-.283-.46-.566-.707-.813a1.475,1.475,0,0,0-1.344-.354,1.972,1.972,0,0,0-1.432.849,1.6,1.6,0,0,0-.3,1.556,2.622,2.622,0,0,0,.654,1.237,2.333,2.333,0,0,0,.919.442,4.781,4.781,0,0,0,1.008.018,1.218,1.218,0,0,0,.919-.53,3.443,3.443,0,0,0,.424-.8,1.36,1.36,0,0,0,.035-.955.222.222,0,0,1,.018-.159,17.126,17.126,0,0,0,1.45-.955,11.166,11.166,0,0,0,.955-1.255,9.366,9.366,0,0,0,.707-1.237c.23-.424.46-.866.654-1.308.177-.389.3-.8.477-1.167.23-.495.477-.884.707-1.379.088-.194.212-.371.3-.566.124-.23.354-.689.495-.9.212-.3.442-.46.636-.778.106-.177.177-.177.389-.159.566.088,1.255.194,1.839.283.548.088,1.114.194,1.662.283.018,0,.035.071.035.088-.106.247-.23.477-.336.725-.124.336-.23.672-.354,1.008-.088.247-.23.477-.318.742a3.946,3.946,0,0,0-.141.8,2.152,2.152,0,0,0,.018.583c.071.46.177.9.265,1.344a1.525,1.525,0,0,1,.018.3c.035.247.088.513.141.813a2.005,2.005,0,0,0,.071.265,2.044,2.044,0,0,0,.141.566c.194.371.442.742.672,1.1.23.371.477.725.742,1.078a13.351,13.351,0,0,0,.955,1.043,2.007,2.007,0,0,0,.619.477,7.458,7.458,0,0,0,1.22.371,9.583,9.583,0,0,0,1.4.23c.654.053,1.29.106,1.945.106a5.02,5.02,0,0,0,1.131-.177,6.72,6.72,0,0,0,.831-.318,6.387,6.387,0,0,0,.866-.371,15.9,15.9,0,0,0,1.591-1.1c.371-.283.477-.636.813-.972a3.661,3.661,0,0,0,.389-.619,6.677,6.677,0,0,0,.477-.937,5.04,5.04,0,0,0,.247-.884c.177-.6.3-1.184.442-1.785a6.411,6.411,0,0,0,.141-1.29,5.1,5.1,0,0,0-.124-1.273m-22.168-6.718c0-.053.071-.088.106-.141.23,0,.283.124.265.371-.035.513-.053,1.025-.088,1.538a4.947,4.947,0,0,1-.106.495c-.018.071-.018.124-.035.194a.88.88,0,0,1-.177.336c.035-.194.053-.407.088-.6.035-.247.053-.477.071-.725.018-.265.035-.53.071-.8a2.582,2.582,0,0,1,.088-.354c0-.018.018-.053.018-.071a.106.106,0,0,0-.071-.018C278.269,390.557,278.2,390.5,278.233,390.291Zm-.035,2.015c-.018.194-.018.389-.035.583,0,.053-.053.106-.071.141v-.407c.018-.336.053-.654.088-.99.035-.318.088-.636.141-.972,0-.018.035-.035.053-.035,0,.053.035.088.018.141-.035.247-.071.477-.088.725C278.251,391.759,278.233,392.042,278.2,392.307Zm-.124-.866a6.6,6.6,0,0,1,.159-.813c-.088.725-.177,1.45-.283,2.174h-.035c.018-.177.035-.354.053-.513C278,391.989,278.039,391.723,278.074,391.44Zm-.937-2.7h.035l.018.513h-.035Zm.141-.212a.519.519,0,0,1,.053.177c.018.3.018.6.018.884,0,.159-.071.124-.124.088A5.014,5.014,0,0,0,277.279,388.524Zm1.98-5.586a.718.718,0,0,1-.212.778c-.371.283-.707.6-1.078.884-.23.194-.477.354-.725.548a3.109,3.109,0,0,0,0-.407c-.053-.247-.141-.495-.212-.742a3.074,3.074,0,0,0-.194-.318c0-.018.053-.071.088-.088.247-.194.513-.407.76-.6.194-.141.407-.283.6-.424.23-.177.46-.354.672-.53A6.734,6.734,0,0,0,279.259,382.937Zm-2.28,6.081-.053-.371v-.141h.035a.328.328,0,0,1,.035.124c.018.194.018.407.035.6a.133.133,0,0,1-.018.088h-.053A.837.837,0,0,0,276.978,389.019Zm-3.2-3.924-.424.106c-.035,0-.053.035-.088.088.018-.071.018-.124.035-.177,0-.018.035-.018.071-.035.477-.106.937-.23,1.414-.336.407-.071.813-.124,1.22-.177l.707-.106h.106v.053c-.177.018-.354.018-.53.053a6.222,6.222,0,0,0-1.361.283A5.129,5.129,0,0,1,273.778,385.094Zm.725.053-.831.106v-.035l.831-.106Zm2.157-1.043c0,.018.018.035.035.053h-1.167V384.1Zm-.407-.053v-.018h.265v.018Zm.194.247a4.228,4.228,0,0,0-1.237.212c-.035,0-.071.018-.106.018-.177.035-.354.071-.513.088-.318.035-.636.071-.937.106a.422.422,0,0,1-.247-.088A12.628,12.628,0,0,1,276.448,384.3Zm-.018.106c-.23.018-.442.053-.672.071v-.035l.672-.053Zm-2.6-.071c-.071.018-.159.053-.23.071a.6.6,0,0,1-.177.018c0-.071.018-.124.018-.177,0,0-.035.018-.035,0a.192.192,0,0,1-.018-.088.08.08,0,0,1,.053-.053c.424.018.831.035,1.255.071h0C274.415,384.246,274.114,384.281,273.831,384.334Zm.336.477c-.265.071-.566.141-.866.212l.071-.212Zm2.051-.106-.389.053v-.018l.389-.053Zm.636-.071c-.018.018-.018.071-.053.071-.495.106-.972.212-1.467.3a3.521,3.521,0,0,1-.742.071C275.334,384.935,276.077,384.794,276.854,384.634Zm1.432-4.508c-.46.619-.9,1.255-1.379,1.874a1.3,1.3,0,0,1-.53.407c-.088.035-.265-.141-.371-.265a2.767,2.767,0,0,1-.336-.583c-.018-.053.035-.159.053-.194a5.646,5.646,0,0,0,.46.672c.141.159.283.035.389-.106.177-.247.336-.513.513-.76a2.189,2.189,0,0,0,.389-.6c.088-.265.3-.23.46-.318a.21.21,0,0,1,.141.018l-.035-.053c.071-.053.141-.124.212-.177,0,0,.035.018.035.035A.033.033,0,0,1,278.286,380.127Zm-2.192,1.644a.265.265,0,0,1-.018-.354c.212-.265.424-.513.636-.76.212-.23.23-.23.336-.177C276.731,380.9,276.412,381.329,276.094,381.771Zm1.114-1.308c.035-.035.124-.035.177-.053l-1.061,1.538c-.106-.053-.177-.106-.071-.247C276.589,381.311,276.89,380.887,277.208,380.462Zm-1.273.972c-.159-.212,0-.354.124-.513a2.511,2.511,0,0,1,.442-.424,1.045,1.045,0,0,1,.247-.106c0,.018,0,.035.018.035C276.483,380.763,276.2,381.1,275.935,381.435Zm3.5-4.119c.018,0,.053.071.035.088-.141.265-.3.53-.442.8l-.424.689c-.088.141-.194.283-.3.424,0,.018-.035.018-.035.018a.823.823,0,0,1-.053.159,1.853,1.853,0,0,1-.354.389c-.035.035-.159,0-.194-.053a5.8,5.8,0,0,1-.477-.672,2.357,2.357,0,0,1-.23-.583c-.018-.071.071-.177.141-.283a2.949,2.949,0,0,0,.124.725,1.693,1.693,0,0,0,.354.442c.194.194.354.071.477-.106.283-.389.583-.778.849-1.184a4.781,4.781,0,0,0,.371-.654c.018-.018-.124-.124-.212-.194-.018,0-.018-.018-.071-.035A1.656,1.656,0,0,1,279.435,377.316Zm-2.245,1.008a2.367,2.367,0,0,1,.283-.389c.283-.265.583-.513.866-.76l.088.088C278,377.634,277.6,377.988,277.19,378.323Zm.619,1.043c.035-.053.088-.124.124-.177a2.818,2.818,0,0,1,.23-.23l.018.018c-.071.088-.141.194-.212.283Zm.742-.99c.194-.3.371-.6.566-.9.018.018.035.018.053.035-.194.3-.389.583-.6.884A.017.017,0,0,0,278.551,378.376Zm.407-.937c-.124.23-.247.424-.371.636-.159.265-.336.53-.513.8a3.862,3.862,0,0,1-.371.389c-.018.018-.106-.035-.141-.071a.328.328,0,0,1-.035-.124c.141-.159.3-.3.442-.46.124-.141.247-.318.371-.46.159-.212.336-.424.495-.619C278.87,377.475,278.905,377.475,278.958,377.44Zm-.141-.053h0c-.442.548-.919,1.1-1.4,1.644-.124-.212-.035-.371.194-.548.265-.212.495-.46.742-.672C278.5,377.669,278.658,377.528,278.817,377.387Zm-.035-.194a.443.443,0,0,1-.071.124c-.283.247-.566.495-.831.742-.194.177-.389.389-.583.566-.018-.018-.035-.018-.035-.035.035-.053.071-.088.106-.141.23-.265.477-.548.725-.813a5.084,5.084,0,0,1,.477-.389c.018-.018.035-.053.053-.053Zm-4.755.23c.265-.371.548-.742.831-1.114a3.569,3.569,0,0,1,.46-.566.464.464,0,0,1,.407-.053c.247.053.495.159.76.194.3.053.583.071.884.106a10.665,10.665,0,0,1,1.29.141c.194.035-.018.194-.035.23-.247.318-.513.636-.8.937-.212.23-.442.424-.672.636a1.986,1.986,0,0,1-.354.318c-.071.035-.194-.035-.283-.053-.495-.106-.99-.212-1.485-.3-.354-.071-.707-.106-1.061-.159a.627.627,0,0,1-.124.018C273.92,377.616,273.973,377.51,274.026,377.422Zm-.177.566c.407.071.8.141,1.184.212.424.071.831.159,1.255.23a.494.494,0,0,1,.407.318c.212.407.477.778.725,1.167.035.053.088.088.141.159-.212,0-.371.018-.548,0-.566-.053-1.114-.106-1.679-.177a7.1,7.1,0,0,1-.884-.159.683.683,0,0,1-.53-.778c0-.141-.071-.283-.088-.442A4.489,4.489,0,0,0,273.849,377.988Zm-1.1,5.675a.2.2,0,0,1-.159-.106.307.307,0,0,1,.053-.247c.247-.212.495-.407.742-.619.071-.071.124-.177.212-.212s.194.018.283.035l.424.106a.017.017,0,0,1,.018.018c.177.018.318.018.477.035v.018c.177.018.371,0,.548.035a1.407,1.407,0,0,0,1.361-.23,3.873,3.873,0,0,0,.354-.389l.035-.035c.053-.088.088-.159.124-.212a6.931,6.931,0,0,1,.442-.566c.035-.035.177,0,.265.018.23.035.442.088.654.141a.908.908,0,0,1,.177.071,6.383,6.383,0,0,1-.442.53c-.318.318-.636.636-.972.937a7.223,7.223,0,0,1-.689.548c-.053.035-.159,0-.247,0-.407.018-.813.035-1.237.035-.477,0-.955-.018-1.432-.018C273.443,383.574,273.107,383.627,272.753,383.662Zm.389.159c1.1.035,2.1.053,3.111.088v.071c-.46.035-.9.071-1.361.071-.247,0-.477-.053-.725-.071s-.495.018-.742,0C273.354,383.98,273.266,383.91,273.142,383.821Zm.283,1.626a1.884,1.884,0,0,1-.53-.106s0-.053.018-.071a4.768,4.768,0,0,1,.424-.778c-.053.23-.088.442-.159.672-.035.141-.035.247.159.212.495-.071.972-.124,1.467-.194.318-.035.636-.071.955-.124l1.114-.212c.088.336-.106.513-.477.442a2.015,2.015,0,0,0-.46.035c-.407,0-.813-.018-1.237.018C274.273,385.359,273.849,385.43,273.425,385.448Zm.689.212c.106.407.212.8.318,1.22a.866.866,0,0,1-.124.053C274.008,386.544,274.132,386.1,274.114,385.66Zm.124.088c0-.018.053-.053.071-.071.018.018.053.035.053.071.071.371.141.725.212,1.1l-.053.071a.224.224,0,0,0-.018-.106c-.071-.177-.141-.371-.194-.548A2.739,2.739,0,0,1,274.238,385.748Zm-.124,1.1c.035.177.124.336.318.159a1.945,1.945,0,0,1,.194-.053c-.141.247-.265.424-.371.6l-.088-.018a6.184,6.184,0,0,1-.247-.813,8.011,8.011,0,0,1-.088-.937c0-.035.035-.071.071-.106a.864.864,0,0,1,.053.124C274.008,386.155,274.061,386.491,274.114,386.844Zm.495-.194-.159-.972h.035c.053.318.106.654.159.972Zm-2.033,1.98c.088.495.194,1.008.283,1.467A2.367,2.367,0,0,1,272.576,388.63Zm.548,2.227h0a3.4,3.4,0,0,1-.318-.548c-.177-.46-.318-.919-.46-1.379a.481.481,0,0,1,0-.159l.035-.018.053.159a6.193,6.193,0,0,0,.23.866C272.806,390.15,272.983,390.5,273.124,390.857Zm.035.442a1.974,1.974,0,0,1-.6-.866,4.163,4.163,0,0,1-.3-.778,4.207,4.207,0,0,1-.194-.937c-.018-.23.247-.265.424-.354.035-.018.071-.018.141.018-.088.088-.159.212-.247.23-.318.071-.106.283-.088.389a6.507,6.507,0,0,0,.283.955c.088.23.212.424.318.636.124.212.23.442.354.654C273.2,391.281,273.177,391.3,273.16,391.3Zm.106-1.149-.407-2.316c.018-.141.23-.265.354-.389.212-.088.407-.159.548-.212.106.177.177.407.318.495a3.737,3.737,0,0,0,.778.3c.566.177,1.131.318,1.715.495.018,0,.018.106.018.159,0,.194,0,.389-.018.583-.018.3-.265.23-.442.283-.548.159-1.114.283-1.662.442-.354.106-.707.23-1.078.318A.307.307,0,0,1,273.266,390.15Zm.495,1.485c-.035.018-.106-.053-.124-.088-.088-.318-.141-.619-.212-.884a8.689,8.689,0,0,1,.884-.3c.46-.106.937-.141,1.379-.265a4.77,4.77,0,0,0,.937-.389.319.319,0,0,1,.424.177c.159.3-.106.336-.247.407-.636.354-1.29.689-1.945.99A7.219,7.219,0,0,1,273.761,391.635Zm.955.849a.544.544,0,0,1-.088.212,1.477,1.477,0,0,1-.141.212c-.318-.336-.194-.742-.194-1.149.141-.053.283-.124.424-.177a5.041,5.041,0,0,0-.053.513C274.662,392.218,274.715,392.36,274.715,392.483Zm.495,2.775c-.265-.212-.513-.407-.742-.6-.3-.265-.6-.513-.9-.8-.159-.159-.354-.3-.265-.583.018-.053.035-.124.053-.177.424.3.866.619,1.29.919a4.481,4.481,0,0,1,.477.318.555.555,0,0,1,.071.354A2.93,2.93,0,0,1,275.21,395.259Zm.088-1.184c-.247-.141-.495-.283-.742-.442-.283-.194-.548-.407-.831-.619a1.876,1.876,0,0,1-.194-.159c-.018-.018-.018-.071-.018-.088.141-.124.3-.23.46-.354a.851.851,0,0,0,.742.919c.46.071.9.159,1.361.194a6.428,6.428,0,0,0,1.167,0c.3-.018.6-.088.9-.124.053,0,.106.106.141.159-.053.035-.106.088-.141.088-.46.035-.919.053-1.361.088a3.6,3.6,0,0,0-1.273.354A.185.185,0,0,1,275.3,394.075Zm.566.566a1.653,1.653,0,0,0,.407-.035c.46-.106.9-.23,1.361-.336a2.582,2.582,0,0,1,.354-.088.374.374,0,0,1,.124.053c-.035.035-.071.088-.106.106-.336.088-.672.177-1.008.247-.424.088-.866.141-1.308.212h-.141v-.106Q275.679,394.667,275.864,394.64Zm-.3-.141c.035-.177.088-.194.336-.23.654-.088,1.308-.212,1.962-.318.071-.018.159-.018.3-.035-.071.088-.106.177-.159.194-.071.035-.159,0-.247.018-.477.106-.955.23-1.45.318C276.041,394.481,275.811,394.481,275.564,394.5Zm1.255.212c.407-.071.8-.177,1.184-.265.035,0,.053-.053.088-.053s.053.018.088.035c-.018.018-.035.053-.053.053-.371.106-.742.23-1.131.318-.46.106-.919.177-1.379.247-.035,0-.071-.088-.124-.141C275.97,394.852,276.395,394.8,276.819,394.711Zm.477.247c-.371.106-.742.212-1.114.3-.212.053-.442.053-.672.088a.764.764,0,0,0-.018-.088,2.586,2.586,0,0,1,.354-.088c.283-.071.548-.124.831-.177l1.061-.212a2.834,2.834,0,0,0,.548-.177c.018,0-.018-.159-.035-.23a.946.946,0,0,0-.088-.194l.053-.035c.106.141.212.283.3.424a.317.317,0,0,1-.124.088A6.786,6.786,0,0,0,277.3,394.958Zm-1.22,10.324a1.885,1.885,0,0,1-.8,1.1,2.014,2.014,0,0,1-1.114.23,1.632,1.632,0,0,1-1.061-.389,1.944,1.944,0,0,1-.477-.636,4.232,4.232,0,0,1-.336-1.043,1.38,1.38,0,0,1,.194-.778,1.761,1.761,0,0,1,.849-.831,1.912,1.912,0,0,1,1.75.053,2.1,2.1,0,0,1,.495.477,3.781,3.781,0,0,1,.23.336c.018.018-.018.106-.053.124-.283.106-.566.212-.866.3-.035.018-.124-.053-.177-.106a.521.521,0,0,0-.689-.071.7.7,0,0,0-.247.495c-.018.265.071.583.265.672a.539.539,0,0,0,.672-.212c.053-.071.088-.194.159-.23a1.681,1.681,0,0,1,.318-.106c.283-.106.548-.23.831-.354A1.525,1.525,0,0,1,276.077,405.282Zm20.011-12.092c.354.177.725.336,1.078.513.23.124.442.3.654.442,0,0,.018.035,0,.035l-.725.831c-.265.3-.513.619-.76.937-.318.407-.636.831-.955,1.237-.088.106-.194.212-.247.283a3.52,3.52,0,0,0-.336-.371c-.124-.106-.247-.194-.389-.3.177-.247.371-.477.53-.725.035-.053-.018-.23-.071-.283-.141-.159-.318-.3-.46-.46a.357.357,0,0,1,0-.3c.088-.389.212-.76.3-1.149.106-.424.23-.831.336-1.273C295.4,392.8,295.734,393.014,296.088,393.191Zm-1.75,6.17a2.363,2.363,0,0,1-.318.124.387.387,0,0,1-.053-.141,1.126,1.126,0,0,1,.053-.389C294.108,399.077,294.214,399.2,294.338,399.36Zm-.106-1.715c.018.018.035.053.053.071-.035.018-.053.018-.088.035a1.65,1.65,0,0,1,.035.583.558.558,0,0,1-.336.354c-.212.018-.177.141-.212.265a2.67,2.67,0,0,1-.159.318,3.7,3.7,0,0,1-.247.3c.071-.265.124-.53.212-.778.141-.442.318-.866.477-1.29,0-.018.088-.035.106-.018A.676.676,0,0,1,294.232,397.645Zm-.053-.495a1.45,1.45,0,0,1,.141-.159,1.615,1.615,0,0,0,.283.23c.177.106.265.265.141.407-.088.106-.283.053-.389-.088a1.464,1.464,0,0,1-.194-.265C294.126,397.257,294.143,397.186,294.179,397.15Zm.106,1.538h-.247c.053-.071.124-.141.177-.212A1,1,0,0,1,294.285,398.688Zm-.6,1.114c-.018.053-.035.106-.071.124a1.408,1.408,0,0,1-.265.053c.088-.071.159-.141.23-.194a.135.135,0,0,1,.088-.035C293.666,399.767,293.684,399.784,293.684,399.8Zm-.477-.442v-1.573c.124.071.265.141.371.212C293.454,398.459,293.313,398.971,293.206,399.36Zm.424-.124c.035.407-.088.583-.513.742C293.295,399.7,293.454,399.484,293.631,399.236Zm1.4-.6c-.035-.018-.053-.124-.071-.212.159.106.3.194.442.283A1.26,1.26,0,0,1,295.027,398.635Zm-1.768-4.861a7.1,7.1,0,0,1,.035-.866c.018-.212.035-.371.053-.619a4.993,4.993,0,0,1,1.414.247c.177.035.212.159.124.354a2.067,2.067,0,0,0-.106.354c-.018.035-.212.707-.283,1.008s-.141.619-.23.937a9.616,9.616,0,0,0-.866-.831C293.171,394.181,293.26,393.968,293.26,393.774Zm-.159-3.924a2.208,2.208,0,0,1-.053.336c-.018.071-.088.106-.141.159-.035-.053-.106-.124-.106-.177,0-.23.018-.442.035-.672,0-.018.088-.053.141-.053a.138.138,0,0,1,.071.071A1.905,1.905,0,0,1,293.1,389.849Zm.3-2.864c0,.071.018.141-.018.194s-.124.071-.23.124c-.106-.018-.265-.053-.424-.088-.018,0-.053-.053-.053-.071a1.319,1.319,0,0,1,.124-.212.833.833,0,0,1,.088.035.309.309,0,0,0,.442,0Zm-.124-3.147h0a.767.767,0,0,1,.336.336.523.523,0,0,1,.071.495c-.018.088-.23.177-.318.23-.212.159-.088.371-.106.566-.018.283-.018.583-.035.866a4.962,4.962,0,0,1-.018.513.124.124,0,0,1-.071.088c-.035,0-.212-.053-.212-.194.018-.265-.018-.336,0-.548v-.707a.759.759,0,0,0,.194-.318,4.26,4.26,0,0,0,.124-.654c0-.053-.106-.23-.177-.23a.227.227,0,0,0-.23.106c-.071.071-.071.212-.106.354a1,1,0,0,1-.177-.46.454.454,0,0,1,.212-.371A.832.832,0,0,1,293.277,383.839Zm-4.72-3.341a11.272,11.272,0,0,1,.619-.972c.053-.071.194-.053.3-.088a1.142,1.142,0,0,1-.071.23c-.124.194-.265.389-.407.583.124.177.177.018.23-.071a.548.548,0,0,1,.654-.23c.053.018.106.018.159.035-.159.053-.336.106-.495.177a4.057,4.057,0,0,0-.477.3c.106.018.159.035.194.035a.951.951,0,0,1,1.432-.053c-.6-.194-1.2-.371-1.52.442a1.891,1.891,0,0,1,.283-.247.576.576,0,0,1,.318-.141c.389.035.8.088,1.184.141a.892.892,0,0,1,.3.177.862.862,0,0,1-.725-.018.945.945,0,0,0-.919,0,.725.725,0,0,0-.088.9.867.867,0,0,0,.76.3,1.343,1.343,0,0,1,.46.106v.106a.134.134,0,0,0-.071-.035c-.088-.035-.212-.106-.247-.071-.088.071-.124.212-.194.336h-.707a.457.457,0,0,0-.442.212c-.141.23-.371.124-.566.141h-.088a6.546,6.546,0,0,0-.159-.849A1.569,1.569,0,0,1,288.557,380.5Zm1.609,1.4c-.159-.035-.354-.018-.46-.106a.605.605,0,0,1-.035-.76c.177-.3.407-.159.636-.053A.908.908,0,0,0,290.166,381.894Zm.424.424a1.594,1.594,0,0,1-.177.159c-.035-.053-.071-.088-.053-.106a.476.476,0,0,1,.124-.141C290.5,382.23,290.555,382.283,290.59,382.319Zm-2.051,1.715c.035-.053.071-.124.124-.141s.124.035.194.053c0,.035-.018.071-.018.106A1.716,1.716,0,0,0,288.539,384.033Zm-3.695,4.031c.194.088.407.124.6.194a2.231,2.231,0,0,0,1.273.035,2.815,2.815,0,0,0,1.591-1.043,2.943,2.943,0,0,0,.53-1.414c.053-.424.018-.849.035-1.273,0-.035.018-.071.053-.071.495-.212.513-.212.424-.8a4.8,4.8,0,0,0-.159-.725c-.088-.265-.053-.371.3-.389a5.988,5.988,0,0,1,.8.035c.194.018.619-.318.619-.53h0v.018a3.185,3.185,0,0,1,.318-.442.307.307,0,0,1,.247-.053,4.808,4.808,0,0,1,.866.23,1.055,1.055,0,0,1,.6,1.237,1.7,1.7,0,0,0,0,.424c.018.177-.018.212-.194.3a.6.6,0,0,0-.159.919.347.347,0,0,1-.124.548c-.23.106-.46.177-.707.265l-.018-.071c.053-.018.106-.018.159-.035s.159-.035.159-.071a.344.344,0,0,0-.053-.23,1.517,1.517,0,0,0-.354-.23c-.212-.088-.23-.3-.3-.477a1.316,1.316,0,0,0-.124-.212,1.56,1.56,0,0,0-.212-.336,1.882,1.882,0,0,0-.442-.159,2.952,2.952,0,0,1,.088-.318.176.176,0,0,0-.141-.265.374.374,0,0,0-.3.106,3.951,3.951,0,0,0-.689,1.715c-.018.46.018.937.035,1.4,0,.071-.018.141-.018.212-.177-.053-.354.071-.46.336a2.424,2.424,0,0,0-.212.636c0,.071.124.124.159.177.053.124-.283.619-.477.8a3.7,3.7,0,0,1-1.485.76,2.538,2.538,0,0,1-1.538,0,7.462,7.462,0,0,1-.937-.442,2.311,2.311,0,0,1-.371-.141.521.521,0,0,1-.177-.318c-.035-.283-.035-.583-.053-.849A9.43,9.43,0,0,0,284.845,388.064Zm6.824-1.821a.62.62,0,0,0-.442.018.186.186,0,0,0-.071.247c-.318.018-.689-.124-.9.3a1.926,1.926,0,0,0-.247-.088c-.212-.018-.265-.106-.265-.336,0-.283-.088-.548-.088-.831a2.481,2.481,0,0,1,.106-.725c.106-.371.247-.725.371-1.1,0-.018.071-.018.106-.035.177-.053.283-.141.23-.354a.132.132,0,0,1,.018-.088.882.882,0,0,0,.124.088c-.071.177-.159.371-.247.548,0,.018-.018.018-.018.035-.018.071-.053.141-.071.212a.731.731,0,0,0,.194-.124c.177-.159.336-.053.495.035.071.035.106.106.194.177a2.8,2.8,0,0,0-.672.018c-.141.035-.247.177-.371.283a.835.835,0,0,0,.035.088,1.837,1.837,0,0,1,.177-.071,2.8,2.8,0,0,1,.636-.159.464.464,0,0,1,.46.389,1.12,1.12,0,0,1-.124-.035.78.78,0,0,0-1.043.194c-.018.018,0,.071.018.106.035-.018.088,0,.088-.035a.467.467,0,0,1,.6-.247,3.36,3.36,0,0,1,.742.265,1.516,1.516,0,0,1,.354.23l-.053.124c-.194-.071-.407-.141-.6-.194a2.308,2.308,0,0,0-.672-.106c-.071,0-.177.247-.194.389a.707.707,0,0,0,.407.725,1.512,1.512,0,0,0,.283,0l.212-.053c.053,0,.106-.035.159-.018.141,0,.194-.018.265.018.088.071.088.247,0,.265C291.775,386.332,291.7,386.261,291.669,386.243Zm.018.23c-.124,0-.212.018-.283.018-.053,0-.141,0-.159-.071,0,0,0-.035.018-.035a.308.308,0,0,1,.265-.088C291.562,386.3,291.739,386.367,291.686,386.473Zm-1.5-2.9c.035-.071.071-.159.106-.23.018.018.035.018.053.035-.035.071-.071.159-.106.23C290.219,383.591,290.2,383.591,290.184,383.574Zm.778,2.546a.527.527,0,0,1-.194-.124,1.235,1.235,0,0,1-.159-.424c-.053-.46.141-.46.477-.371C290.661,385.571,290.643,385.713,290.961,386.119ZM283.59,383.1c.371.212.407.972-.018,1.45-.177-.194-.354-.407-.548-.6-.018-.018-.053-.035-.071-.071.071-.018.124-.035.194-.053.265-.124.23-.424.23-.689C283.378,383.061,283.554,383.079,283.59,383.1Zm1.609-2.811c-.035.053-.124.053-.177.053a.062.062,0,0,1-.035-.018c-.018-.018-.053-.035-.053-.053l-.053-.053a1.794,1.794,0,0,1-.247-.336.078.078,0,0,1-.018-.088c.018-.018.035,0,.053,0,.159.106.3.212.46.3C285.181,380.144,285.234,380.215,285.2,380.286Zm.159-.247c-.035.053-.106.018-.124,0-.177-.141-.336-.247-.495-.371-.018-.018-.035-.018-.035-.035s.018-.018.035-.018c.159.035.336,0,.477.106.018.018.035.035.053.035l.053.053A.485.485,0,0,1,285.357,380.038Zm.919-1.962a.894.894,0,0,1-.831-.9.873.873,0,0,1,.088-.283c.035.018.088.018.106.053a5.259,5.259,0,0,0,.354.513.905.905,0,0,0,.76.336C286.683,377.97,286.56,378.058,286.277,378.076Zm-.106-.654a.185.185,0,0,0,.265-.159,1.784,1.784,0,0,1,.177.23c.035.035.035.088.053.141a.481.481,0,0,1-.159,0,1.211,1.211,0,0,1-.707-.619,1.4,1.4,0,0,0-.106-.177c.194.071.354.141.495.194-.018.018-.124,0-.159.141C286.029,377.28,286.171,377.422,286.171,377.422Zm.636.106a2.7,2.7,0,0,0-.477-.53,3.072,3.072,0,0,0-.6-.283.912.912,0,0,1,.831.035C286.948,377.139,286.913,377.227,286.807,377.528Zm.106-.177a2.09,2.09,0,0,0-.071-.354.662.662,0,0,0-.53-.389,1.288,1.288,0,0,0-.636.071.668.668,0,0,0-.3.583h0a2.746,2.746,0,0,0,.071.371c.053.071.088.177.159.23.071.071.159.124.23.194.194.177.495.053.725,0,.035-.018.071.053.018.071-.23.053-.513.177-.742.018a.831.831,0,0,1-.212-.159.63.63,0,0,1-.247-.318.5.5,0,0,1-.071-.212.936.936,0,0,1,.194-.831.594.594,0,0,1,.424-.194,1.247,1.247,0,0,1,.265,0c.053.018.265.053.265.053a.672.672,0,0,1,.318.23,1.017,1.017,0,0,1,.194.6C286.984,377.4,286.931,377.4,286.913,377.351Zm-.76-1.184a.958.958,0,0,1,.725.354,3.9,3.9,0,0,1,.389.513v.035a3.079,3.079,0,0,0-.212.247.913.913,0,0,0-.689-.9,1.371,1.371,0,0,0-.336-.035.9.9,0,0,0-.566.23c-.035.035-.106-.053-.177-.088C285.534,376.149,285.852,376.184,286.153,376.167Zm-.919.389c.053.035.088.071.141.106-.018.018-.035.035-.035.053-.035-.053-.088-.088-.124-.141Zm-2.669,5.9a2.5,2.5,0,0,1,.106-.389c.088-.265.159-.53.247-.8.124-.407-.088-.654-.141-1.025a1.883,1.883,0,0,1,.071-1.131c.194-.336.018-.654.018-1.008a1.609,1.609,0,0,1,.283-.672c.071-.159.177-.513.283-.566.212-.106.424-.23.619-.106a.321.321,0,0,1,.141.354c-.053.141-.159.283-.23.424a.876.876,0,0,0-.071.23s.265.159.389.212a.87.87,0,0,0,.3.106c.018,0,.071-.088.088-.124a5.153,5.153,0,0,0,.247-.548c.088-.212.159-.442.23-.672.212.071.088.23.053.336a1.054,1.054,0,0,0,.354.99.952.952,0,0,0,.972.194c-.088.283-.159.548-.265.813-.035.071-.141.159-.194.141-.106-.018-.23-.194-.23-.194a.178.178,0,0,0-.018-.265.176.176,0,0,0-.212.159c-.035-.053-.141-.071-.212-.159a.119.119,0,0,1-.035-.141c.018-.035.106-.018.141-.035a.765.765,0,0,0,.088-.018c.018,0,.018-.053.018-.053a.582.582,0,0,0-.106-.053.254.254,0,0,0-.3.23.49.49,0,0,0,.088.212,2.314,2.314,0,0,0,.283.23,3.244,3.244,0,0,1-.124.407c-.035.053-.053.088-.088.106a.37.37,0,0,1-.106.071,1.171,1.171,0,0,0-.477-.141c-.035,0-.088-.018-.124-.018-.124,0-.177.071-.194.194-.018.336.194.424.371.619.018.018.035.018.053.035a.887.887,0,0,1,.053.283,1.717,1.717,0,0,1-.053.566.689.689,0,0,1-.46.477c-.141.071-.336,0-.513.018-.141,0-.283-.071-.424-.035-.071.018-.124.177-.159.283a4.4,4.4,0,0,0-.124,1.361c.018.247-.124.424-.318.407-.106,0-.265,0-.283-.035a2.991,2.991,0,0,1-.124-.672C282.511,382.831,282.547,382.655,282.564,382.46Zm-.46.672.071-.071a.317.317,0,0,1,.124-.088v.159a2.222,2.222,0,0,0,.088.583c.053.212.194.212.336.194,0,.018-.018.053-.018.071v.035c-.018.212-.053.442-.071.654a.374.374,0,0,1-.053.124c-.053-.035-.106-.053-.124-.088a2.751,2.751,0,0,0-.283-.495A1.446,1.446,0,0,1,282.1,383.132Zm-2.316,9.935c-.053-.018-.124-.035-.141-.071a2.934,2.934,0,0,1-.212-.548,1.075,1.075,0,0,1-.053-.407.492.492,0,0,1,.725-.177C279.807,392.271,279.647,392.89,279.789,393.067Zm2.28,1.4c0,.018-.035.018-.035.035-.124.265-.23.283-.371,0-.071-.141-.141-.283-.265-.495.106-.035.212-.088.283-.053a2.611,2.611,0,0,1,.477.283C282.175,394.251,282.1,394.393,282.069,394.463Zm3.005-2.811c-.106.035-.23-.035-.354-.035-.442-.053-.6-.389-.76-.778a.327.327,0,0,0,.46-.194c0-.018.035,0,.053,0,.265.035.53.106.8.124a11.343,11.343,0,0,0,1.732-.035,6.491,6.491,0,0,0,1.1-.336c.194-.071.407-.124.6-.212a2.082,2.082,0,0,0,.972-.778c.106-.212.23-.407.318-.619.071-.177.088-.371.159-.548.035-.088.159-.141.23-.212.159-.194.336-.76.124-1.025-.035-.035-.141-.106-.177-.141l.071-.106c.071-.053.106-.106.159-.124.247-.018.513,0,.76,0a1.28,1.28,0,0,0,.371-.018.37.37,0,0,0,.265-.194.362.362,0,0,0-.071-.354l-.053-.053a.033.033,0,0,1,0-.053c.035-.071.177-.088.212-.088a3.648,3.648,0,0,0,.619-.212c.035-.018.159-.088.212-.106v1.29c-.247-.018-.247.194-.3.336-.018.035.088.124.106.141-.035.159-.053.3-.088.442-.018.035-.088.071-.106.106-.124.23-.159.46.124.566a.232.232,0,0,0-.018.354.32.32,0,0,0-.071.424c.053.071.088.071.124.106a.393.393,0,0,1,.088.194c0,.159-.035.318-.035.46,0,.124-.035.159-.159.159-.53,0-1.061.018-1.573.053-.495.035-.972.106-1.467.177-.46.071-.849.177-1.308.283-.3.071-.672.194-.972.283-.495.141-.99.265-1.485.407C285.481,391.44,285.287,391.582,285.075,391.653Zm7.46,2.068c-.442-.407-.9-.849-1.414-1.326a6.689,6.689,0,0,0,1.1-.124c.354-.088.336.106.336.371C292.535,393,292.535,393.35,292.535,393.721Zm0,6.01c-.141-.194-.265-.389-.407-.6-.283-.424-.548-.866-.849-1.273-.318-.442-.654-.849-.955-1.29a3.009,3.009,0,0,1-.212-.6c-.071-.212-.159-.424-.23-.636-.088-.23-.177-.442-.265-.672a1.267,1.267,0,0,0-1.025-.831v-.106a3.164,3.164,0,0,1,.707-.035.91.91,0,0,1,.513.23,13.348,13.348,0,0,1,1.078,1.149c.354.407.689.813,1.025,1.237a2.572,2.572,0,0,1,.442.636,2.248,2.248,0,0,1,.106.689,7.118,7.118,0,0,1,.053.866v.8A3.846,3.846,0,0,1,292.535,399.731Zm-1.078,1.078c0-.283.212-.247.371-.247a4.354,4.354,0,0,1,.46.035c-.283.318-.548.619-.831.919Zm.8-.636c-.247.018-.477.018-.725.035-.141.018-.283.053-.318.247-.053.212-.265.141-.389.23a.882.882,0,0,1-.371.088.517.517,0,0,1-.159-.035l.018-.053a4.3,4.3,0,0,0,.46-.106c.035-.018.053-.124.053-.194V399.5c.212.071.424.141.654.212a5.959,5.959,0,0,0,.6.177c.088.035.177.053.283.088.018,0,.018.035.018.053C292.323,400.05,292.287,400.173,292.252,400.173Zm-2.3,1.078c-.177-.141-.177-.354-.354-.513a.541.541,0,0,1,.46-.035.9.9,0,0,1,.159.212l.053.318C290.2,401.216,289.989,401.287,289.954,401.252Zm.477,1.1c.035-.071.053-.141.088-.212.088.053.194.106.318.194A2.74,2.74,0,0,0,290.431,402.348Zm-.035-1.467c.247-.071.495-.141.76-.212v.725C290.944,401.163,290.555,401.252,290.4,400.881Zm1.839-1.061c-.477-.159-.955-.3-1.432-.477-.035-.018-.035-.159-.053-.247-.053-.283-.088-.566-.159-.849-.071-.371-.159-.725-.247-1.078a1.913,1.913,0,0,1,0-.318l.053-.035c.707,1.008,1.4,2,2.139,3.058A1.024,1.024,0,0,1,292.234,399.82Zm-5.816-8.079a.387.387,0,0,0,.088-.053c.3-.088.6-.177.9-.247.23-.053.477-.106.707-.141.566-.088,1.131-.212,1.7-.265.442-.053.884-.035,1.326-.053.283-.018.583-.018.866-.035.336-.035.477.053.477.336,0,.053-.106.124-.159.141-.283.018-.583-.018-.866.018a4.893,4.893,0,0,0-.884.177c-.194.053-.371.194-.583.247-.124.035-.247-.053-.389-.053-.371-.035-.725-.053-1.1-.071-.177-.018-.354-.035-.53-.035-.071,0-.636,0-.849.018C286.913,391.706,286.666,391.741,286.418,391.741Zm.141,6.311q.053-.636.159-1.273a2.018,2.018,0,0,1,.159-.46c.124-.3.265-.6.442-.99a5.17,5.17,0,0,1,.566.742,2.027,2.027,0,0,1,.106.6c.088.407.177.813.283,1.22.053.283.106.566.177.9-.407-.106-.76-.212-1.114-.3-.23-.053-.46-.124-.689-.159C286.4,398.3,286.542,398.123,286.56,398.052Zm1.131,5.25c-.106-.141-.247-.265-.336-.407-.141-.23-.265-.46-.407-.707a.386.386,0,0,0-.053-.088c-.159-.247.053-.212.159-.247.654-.159,1.29-.318,1.945-.477.141-.035.283-.088.407-.124a1.4,1.4,0,0,0,.159-.071c-.035-.018-.053-.071-.071-.071-.177.053-.46.159-.636.212-.389.106-.8.194-1.184.3-.23.053-.442.088-.672.159-.177.053-.265.018-.3-.177-.053-.318-.141-.636-.194-.955a7.691,7.691,0,0,1-.035-.9c0-.336,0-.654.018-.99,0-.106.018-.23.018-.3.3.053.6.124.9.177.3.071.6.124.9.212.053.018.106.177.106.265.018.354.018.689.035,1.043a2.73,2.73,0,0,0,.071.53c.071.23.265.141.424.124a1.593,1.593,0,0,0,.283-.053c.212-.035.194.194.3.3a1.1,1.1,0,0,1,.177.283c0,.018.018.035.018.053-.035.23-.071.477-.124.707a.273.273,0,0,0,.265.354c.141,0,.159.106.159.212a.314.314,0,0,0,.071.177c.124.106.071.212-.018.3-.265.283-.53.548-.8.813-.194.194-.389.371-.619.583C288.363,404.116,288.027,403.709,287.691,403.3Zm3.483,2.546a5.26,5.26,0,0,1-.919-.371c-.371-.194-.707-.442-1.061-.672a1.942,1.942,0,0,0-.247-.159c-.177-.088-.071-.194,0-.265.283-.3.566-.566.849-.866a5.943,5.943,0,0,0,.424-.513.106.106,0,0,1,.071-.018.58.58,0,0,0,.725-.141c.141-.141.247-.247.212-.46h.318c.247,0,.336-.159.23-.407a2.145,2.145,0,0,0-.247-.354c.265-.318.566-.654.849-.99h.018c.407.23.106.53.053.778-.106.566-.283,1.114-.407,1.679-.141.583-.247,1.184-.371,1.785-.071.3-.141.583-.194.884C291.421,406.007,291.262,405.883,291.174,405.848Zm1.22.106a4,4,0,0,1-.8-.035,1.076,1.076,0,0,1,0-.247c.035-.159.106-.318.141-.477.053-.212.088-.442.124-.672.071-.424.141-.849.23-1.273.088-.442.212-.9.336-1.344.088-.354.194-.725.3-1.061.018-.035.141-.035.23-.071.265.8.53,1.573.8,2.351.265.8.53,1.591.778,2.4A6.226,6.226,0,0,1,292.393,405.954Zm2.3-.442c-.159-.424-.336-.813-.477-1.22-.124-.336-.194-.689-.318-1.043-.159-.495-.318-.972-.495-1.467-.124-.336-.247-.654-.354-.99-.018-.053.071-.124.124-.177,1.432,1.131,2.846,2.263,4.3,3.412C296.495,404.54,295.593,405.035,294.691,405.512ZM298.7,402.4a3.288,3.288,0,0,1-.707,1.237,2.2,2.2,0,0,1-.407.3c-.035.018-.124-.018-.177-.071-.354-.283-.707-.583-1.061-.866-.477-.389-.955-.778-1.432-1.149l-1.273-.955c-.141-.106-.247-.23-.371-.336-.018-.018-.018-.071-.018-.088s.035-.018.053-.018c.283.071.566.124.831.177.442.088.884.177,1.326.283.495.141.99.318,1.485.46a9.193,9.193,0,0,1,.884.354c.407.159.566.265.972.442C298.775,402.171,298.722,402.33,298.7,402.4Zm.566-1.432c-.124.371-.283.742-.407,1.1a20.229,20.229,0,0,0-5.144-1.626c.088-.088.177-.159.265-.247-.018-.018-.018-.035-.035-.035.354-.053.707-.106,1.061-.141.141-.018.3-.018.442-.035.371-.018.76-.035,1.131-.071.46-.053.919-.106,1.379-.177.46-.053.6-.106,1.061-.177.177-.018.354-.053.53-.071.018,0,.053.053.053.053C299.464,400.032,299.429,400.509,299.27,400.969Zm.336-1.679c0,.053-.177.124-.283.141-.513.071-.707.124-1.22.194-.636.071-1.273.159-1.909.23-.371.035-.742.018-1.114.053s-.76.124-1.149.177c.018-.159.035-.3.035-.389a2.819,2.819,0,0,1,.407-.283c.071-.035.159.018.247.035a.761.761,0,0,0,.707-.106.429.429,0,0,0,.071-.619,2.747,2.747,0,0,0,.654.071c.354-.053.407-.283.212-.6a1.375,1.375,0,0,0-.849-.53c-.053-.018-.124-.053-.177-.071a.437.437,0,0,1,.071-.159c.212-.265.424-.513.619-.778.3-.371.6-.725.884-1.1l.9-1.114a2.4,2.4,0,0,1,.212-.212c.6.336.636.884.866,1.52.159.442.3.884.442,1.326.018.035-.018.088-.035.106-.6.265-.849.53-1.45.778-.407.159-.813.3-1.237.442-.035.018-.053.071-.088.106.035,0,.088.018.106,0l1.22-.424c.477-.194.636-.389,1.114-.583l.46-.23c.088.354.194.707.247,1.061A4.278,4.278,0,0,1,299.606,399.29Z" transform="translate(-271.734 -375)" fill="#44413f"/></g></g></svg>